<svg width="48" height="48" viewBox="0 0 48 48" fill="none" xmlns="http://www.w3.org/2000/svg">
<path d="M24 33.6L33.6 24L24 14.4L20.64 17.76L24.48 21.6H14.4V26.4H24.48L20.64 30.24L24 33.6ZM24 48C20.68 48 17.56 47.3696 14.64 46.1088C11.72 44.848 9.18 43.1384 7.02 40.98C4.86 38.82 3.1504 36.28 1.8912 33.36C0.632 30.44 0.0016 27.32 0 24C0 20.68 0.6304 17.56 1.8912 14.64C3.152 11.72 4.8616 9.18 7.02 7.02C9.18 4.86 11.72 3.1504 14.64 1.8912C17.56 0.632 20.68 0.0016 24 0C27.32 0 30.44 0.6304 33.36 1.8912C36.28 3.152 38.82 4.8616 40.98 7.02C43.14 9.18 44.8504 11.72 46.1112 14.64C47.372 17.56 48.0016 20.68 48 24C48 27.32 47.3696 30.44 46.1088 33.36C44.848 36.28 43.1384 38.82 40.98 40.98C38.82 43.14 36.28 44.8504 33.36 46.1112C30.44 47.372 27.32 48.0016 24 48Z" fill="white"/>
</svg>
