<svg width="28" height="28" viewBox="0 0 28 28" fill="none" xmlns="http://www.w3.org/2000/svg">
<path d="M9.38 13.02C8.83876 13.5612 8.83876 14.4388 9.38 14.98L11.2 16.8C12.7464 18.3464 15.2536 18.3464 16.8 16.8L18.62 14.98C19.1612 14.4388 19.1612 13.5612 18.62 13.02L18.2961 12.6961C17.9337 12.3337 17.3463 12.3337 16.9839 12.6961V12.6961C16.3994 13.2806 15.4 12.8666 15.4 12.04L15.4 9.8C15.4 9.0268 14.7732 8.4 14 8.4V8.4C13.2268 8.4 12.6 9.0268 12.6 9.8L12.6 12.04C12.6 12.8666 11.6006 13.2806 11.0161 12.6961V12.6961C10.6537 12.3337 10.0663 12.3337 9.70392 12.6961L9.38 13.02ZM2.86102e-06 14C2.86102e-06 12.0633 0.367736 10.2433 1.1032 8.54C1.83867 6.83667 2.83593 5.355 4.095 4.095C5.355 2.835 6.83667 1.83773 8.54 1.1032C10.2433 0.368667 12.0633 0.000933333 14 0C15.9367 0 17.7567 0.367733 19.46 1.1032C21.1633 1.83867 22.645 2.83593 23.905 4.095C25.165 5.355 26.1623 6.83667 26.8968 8.54C27.6313 10.2433 27.9991 12.0633 28 14C28 15.9367 27.6323 17.7567 26.8968 19.46C26.1613 21.1633 25.1641 22.645 23.905 23.905C22.645 25.165 21.1633 26.1627 19.46 26.8982C17.7567 27.6337 15.9367 28.0009 14 28C12.0633 28 10.2433 27.6323 8.54 26.8968C6.83667 26.1613 5.355 25.1641 4.095 23.905C2.835 22.645 1.83727 21.1633 1.1018 19.46C0.366337 17.7567 -0.000930472 15.9367 2.86102e-06 14Z" fill="black"/>
</svg>
